<svg width="25" height="24" viewBox="0 0 25 24" fill="none" xmlns="http://www.w3.org/2000/svg">
<path d="M20.92 4.57996C20.4183 4.07653 19.8222 3.67709 19.1658 3.40455C18.5095 3.132 17.8057 2.9917 17.095 2.9917C16.3843 2.9917 15.6806 3.132 15.0242 3.40455C14.3678 3.67709 13.7717 4.07653 13.27 4.57996L12.5 5.35996L11.73 4.57996C11.2283 4.07653 10.6322 3.67709 9.97585 3.40455C9.31947 3.132 8.61574 2.9917 7.90503 2.9917C7.19431 2.9917 6.49058 3.132 5.8342 3.40455C5.17783 3.67709 4.5817 4.07653 4.08003 4.57996C1.96003 6.69996 1.83003 10.28 4.50003 13L12.5 21L20.5 13C23.17 10.28 23.04 6.69996 20.92 4.57996Z" stroke="#1A1A1A" stroke-width="2" stroke-linecap="round" stroke-linejoin="round"/>
<path d="M12.5 5.35986L9.37001 8.49986C8.9743 8.89881 8.75226 9.43795 8.75226 9.99986C8.75226 10.5618 8.9743 11.1009 9.37001 11.4999C9.76895 11.8956 10.3081 12.1176 10.87 12.1176C11.4319 12.1176 11.9711 11.8956 12.37 11.4999L14.63 9.28986C15.1917 8.73415 15.9499 8.42244 16.74 8.42244C17.5301 8.42244 18.2883 8.73415 18.85 9.28986L21.25 11.6899" stroke="#1A1A1A" stroke-width="2" stroke-linecap="round" stroke-linejoin="round"/>
<path d="M18.5 15L16.5 13" stroke="#1A1A1A" stroke-width="2" stroke-linecap="round" stroke-linejoin="round"/>
<path d="M15.5 18L13.5 16" stroke="#1A1A1A" stroke-width="2" stroke-linecap="round" stroke-linejoin="round"/>
</svg>
