<svg width="400" height="400" viewBox="0 0 400 400" fill="none" xmlns="http://www.w3.org/2000/svg">
<rect width="400" height="400" rx="24" fill="#34C759"/>
<path d="M200 219.25C224.162 219.25 243.75 199.662 243.75 175.5C243.75 151.338 224.162 131.75 200 131.75C175.838 131.75 156.25 151.338 156.25 175.5C156.25 199.662 175.838 219.25 200 219.25Z" stroke="white" stroke-width="8" stroke-linecap="round" stroke-linejoin="round"/>
<path d="M182.5 184.25C182.5 184.25 189.062 193 200 193C210.938 193 217.5 184.25 217.5 184.25" stroke="white" stroke-width="8" stroke-linecap="round" stroke-linejoin="round"/>
<path d="M213.125 162.375H213.169" stroke="white" stroke-width="8" stroke-linecap="round" stroke-linejoin="round"/>
<path d="M186.875 162.375H186.919" stroke="white" stroke-width="8" stroke-linecap="round" stroke-linejoin="round"/>
<path d="M164.184 255.02C163.964 255.02 163.876 254.91 163.876 254.712V252.842C163.876 252.644 163.964 252.534 164.184 252.534H166.01C165.636 251.918 165.196 251.302 164.712 250.73C164.668 250.664 164.624 250.576 164.624 250.532C164.624 250.422 164.712 250.356 164.844 250.312L166.956 249.74L167.088 249.718C167.198 249.718 167.286 249.784 167.374 249.894C167.88 250.642 168.474 251.632 168.914 252.534H170.652C171.18 251.676 171.73 250.686 172.104 249.894C172.17 249.74 172.302 249.674 172.478 249.696L174.7 250.092C174.92 250.136 175.008 250.268 174.898 250.466C174.524 251.192 174.084 251.896 173.644 252.534H175.492C175.69 252.534 175.8 252.644 175.8 252.842V254.712C175.8 254.91 175.69 255.02 175.492 255.02H171.246C171.246 255.724 171.224 256.516 171.18 257.11H176.02C176.218 257.11 176.328 257.22 176.328 257.418V259.288C176.328 259.486 176.218 259.596 176.02 259.596H171.466C172.654 261.224 174.392 262.346 176.526 262.962C176.746 263.028 176.812 263.182 176.702 263.358L175.58 265.448C175.492 265.624 175.36 265.668 175.184 265.624C173.094 264.92 171.18 263.49 169.882 261.598C168.716 263.402 166.912 264.788 164.822 265.536C164.778 265.558 164.734 265.58 164.69 265.58C164.58 265.58 164.492 265.514 164.426 265.404L163.106 263.402C163.062 263.358 163.062 263.292 163.062 263.226C163.062 263.138 163.128 263.05 163.282 263.006C165.438 262.434 167.088 261.356 167.902 259.596H163.744C163.546 259.596 163.436 259.486 163.436 259.288V257.418C163.436 257.22 163.546 257.11 163.744 257.11H168.342C168.386 256.516 168.408 255.724 168.408 255.02H164.184ZM156.836 267.296C156.792 267.23 156.77 267.164 156.77 267.098C156.77 267.01 156.836 266.922 156.946 266.856C157.892 266.306 158.97 265.536 159.696 264.832V259.992H157.562C157.364 259.992 157.254 259.882 157.254 259.684V257.682C157.254 257.484 157.364 257.374 157.562 257.374H162.094C162.292 257.374 162.402 257.484 162.402 257.682V264.106C162.996 265.646 164.206 266.306 166.516 266.46C167.308 266.526 168.298 266.57 169.398 266.57C171.708 266.57 174.524 266.416 177.032 266.086H177.098C177.296 266.086 177.384 266.218 177.318 266.416L176.614 268.726C176.57 268.88 176.482 268.968 176.35 268.99C174.832 269.166 172.258 269.298 169.838 269.298C168.562 269.298 167.33 269.254 166.318 269.166C163.854 268.99 162.27 268.33 161.126 266.944C160.466 267.758 159.52 268.66 158.574 269.342C158.508 269.386 158.442 269.408 158.376 269.408C158.288 269.408 158.222 269.364 158.156 269.276L156.836 267.296ZM157.694 251.676C157.606 251.61 157.584 251.544 157.584 251.456C157.584 251.39 157.628 251.302 157.716 251.236L159.432 250.07C159.52 250.026 159.586 250.004 159.652 250.004C159.718 250.004 159.806 250.026 159.872 250.092C160.884 251.016 161.94 252.336 162.578 253.546C162.622 253.612 162.644 253.678 162.644 253.722C162.644 253.81 162.578 253.898 162.49 253.964L160.686 255.218C160.62 255.284 160.554 255.306 160.51 255.306C160.4 255.306 160.334 255.24 160.268 255.108C159.674 253.898 158.684 252.578 157.694 251.676ZM186.668 252.402C186.47 252.402 186.36 252.292 186.36 252.094V250.554C186.36 250.356 186.47 250.246 186.668 250.246H197.514C197.712 250.246 197.822 250.356 197.822 250.554V252.094C197.822 252.292 197.712 252.402 197.514 252.402H186.668ZM178.704 257.462C178.704 257.352 178.748 257.264 178.836 257.176C180.662 255.372 182.092 252.6 182.774 250.004C182.818 249.806 182.95 249.74 183.148 249.762L185.37 250.202C185.568 250.246 185.656 250.378 185.59 250.576C185.194 251.984 184.732 253.282 184.116 254.536V269.342C184.116 269.54 184.006 269.65 183.808 269.65H181.652C181.454 269.65 181.344 269.54 181.344 269.342V258.76C180.882 259.42 180.42 259.948 179.958 260.388C179.892 260.454 179.826 260.498 179.782 260.498C179.672 260.498 179.606 260.41 179.562 260.278L178.726 257.594L178.704 257.462ZM185.194 253.634C185.194 253.436 185.304 253.326 185.502 253.326H198.702C198.9 253.326 199.01 253.436 199.01 253.634V255.328C199.01 255.526 198.9 255.636 198.702 255.636H185.502C185.304 255.636 185.194 255.526 185.194 255.328V253.634ZM185.898 263.182C185.898 262.984 186.008 262.874 186.206 262.874H197.91C198.13 262.874 198.218 262.984 198.218 263.182V268.99C198.218 269.21 198.13 269.298 197.91 269.298H186.206C186.008 269.298 185.898 269.21 185.898 268.99V263.182ZM186.25 256.956C186.25 256.758 186.36 256.648 186.558 256.648H197.514C197.712 256.648 197.822 256.758 197.822 256.956V258.386C197.822 258.584 197.712 258.694 197.514 258.694H186.558C186.36 258.694 186.25 258.584 186.25 258.386V256.956ZM186.272 259.97C186.272 259.772 186.382 259.662 186.58 259.662H197.514C197.712 259.662 197.822 259.772 197.822 259.97V261.422C197.822 261.62 197.712 261.73 197.514 261.73H186.58C186.382 261.73 186.272 261.62 186.272 261.422V259.97ZM188.626 267.208H195.49V264.986H188.626V267.208ZM201.804 256.296C201.584 256.296 201.496 256.186 201.496 255.988V251.654C201.496 251.434 201.584 251.346 201.804 251.346H209.394V249.806C209.394 249.608 209.504 249.498 209.702 249.498H212.254C212.452 249.498 212.562 249.608 212.562 249.806V251.346H220.196C220.394 251.346 220.504 251.434 220.504 251.654V255.988C220.504 256.186 220.394 256.296 220.196 256.296H218.084C217.886 256.296 217.776 256.186 217.776 255.988V253.832H204.224V255.988C204.224 256.186 204.114 256.296 203.916 256.296H201.804ZM201.056 267.472C201.012 267.406 200.99 267.34 200.99 267.274C200.99 267.164 201.078 267.098 201.254 267.076C204.312 266.702 206.534 265.404 206.776 262.192H202.112C201.914 262.192 201.804 262.082 201.804 261.884V259.882C201.804 259.684 201.914 259.574 202.112 259.574H219.888C220.086 259.574 220.196 259.684 220.196 259.882V261.884C220.196 262.082 220.086 262.192 219.888 262.192H214.476V265.998C214.476 266.438 214.74 266.636 215.224 266.658C215.532 266.68 215.906 266.702 216.302 266.702C216.676 266.702 217.05 266.68 217.358 266.658C218.48 266.57 218.722 265.91 218.788 263.996C218.788 263.776 218.92 263.666 219.14 263.754L221.054 264.48C221.23 264.546 221.296 264.678 221.274 264.854C221.12 267.78 220.504 269.012 217.864 269.144C217.314 269.188 216.566 269.21 215.862 269.21C215.202 269.21 214.564 269.188 214.058 269.166C212.386 269.078 211.704 268.264 211.704 266.878V262.192H209.526C209.284 266.394 206.754 268.836 202.772 269.628C202.75 269.65 202.706 269.65 202.684 269.65C202.552 269.65 202.464 269.584 202.376 269.474L201.056 267.472ZM204.818 255.79C204.818 255.592 204.928 255.482 205.126 255.482H216.918C217.116 255.482 217.226 255.592 217.226 255.79V257.594C217.226 257.792 217.116 257.902 216.918 257.902H205.126C204.928 257.902 204.818 257.792 204.818 257.594V255.79ZM228.556 269.584C228.358 269.584 228.248 269.496 228.182 269.32L227.324 267.098L227.302 266.966C227.302 266.834 227.412 266.746 227.632 266.768C228.16 266.79 228.622 266.79 229.04 266.79C231.724 266.79 231.944 266.284 231.944 265.338V256.626C231.944 256.45 232.032 256.34 232.208 256.274C234.716 255.416 236.96 254.184 237.862 253.216H224.508C224.31 253.216 224.2 253.106 224.2 252.908V250.752C224.2 250.554 224.31 250.444 224.508 250.444H241.712C241.91 250.444 242.02 250.554 242.02 250.752V252.842C242.02 252.996 241.976 253.106 241.888 253.238C240.348 254.998 237.73 256.846 234.936 258.21V266.086C234.936 268.572 233.836 269.672 228.556 269.584Z" fill="white"/>
</svg>
