<svg width="400" height="400" viewBox="0 0 400 400" fill="none" xmlns="http://www.w3.org/2000/svg">
<rect width="400" height="400" rx="24" fill="#FF3B30"/>
<path d="M200 219.25C224.162 219.25 243.75 199.662 243.75 175.5C243.75 151.338 224.162 131.75 200 131.75C175.838 131.75 156.25 151.338 156.25 175.5C156.25 199.662 175.838 219.25 200 219.25Z" stroke="white" stroke-width="8" stroke-linecap="round" stroke-linejoin="round"/>
<path d="M217.5 193C217.5 193 210.938 184.25 200 184.25C189.062 184.25 182.5 193 182.5 193" stroke="white" stroke-width="8" stroke-linecap="round" stroke-linejoin="round"/>
<path d="M208.75 162.375L219.688 158" stroke="white" stroke-width="8" stroke-linecap="round" stroke-linejoin="round"/>
<path d="M180.312 158L191.25 162.375" stroke="white" stroke-width="8" stroke-linecap="round" stroke-linejoin="round"/>
<path d="M89.684 255.02C89.464 255.02 89.376 254.91 89.376 254.712V252.842C89.376 252.644 89.464 252.534 89.684 252.534H91.51C91.136 251.918 90.696 251.302 90.212 250.73C90.168 250.664 90.124 250.576 90.124 250.532C90.124 250.422 90.212 250.356 90.344 250.312L92.456 249.74L92.588 249.718C92.698 249.718 92.786 249.784 92.874 249.894C93.38 250.642 93.974 251.632 94.414 252.534H96.152C96.68 251.676 97.23 250.686 97.604 249.894C97.67 249.74 97.802 249.674 97.978 249.696L100.2 250.092C100.42 250.136 100.508 250.268 100.398 250.466C100.024 251.192 99.584 251.896 99.144 252.534H100.992C101.19 252.534 101.3 252.644 101.3 252.842V254.712C101.3 254.91 101.19 255.02 100.992 255.02H96.746C96.746 255.724 96.724 256.516 96.68 257.11H101.52C101.718 257.11 101.828 257.22 101.828 257.418V259.288C101.828 259.486 101.718 259.596 101.52 259.596H96.966C98.154 261.224 99.892 262.346 102.026 262.962C102.246 263.028 102.312 263.182 102.202 263.358L101.08 265.448C100.992 265.624 100.86 265.668 100.684 265.624C98.594 264.92 96.68 263.49 95.382 261.598C94.216 263.402 92.412 264.788 90.322 265.536C90.278 265.558 90.234 265.58 90.19 265.58C90.08 265.58 89.992 265.514 89.926 265.404L88.606 263.402C88.562 263.358 88.562 263.292 88.562 263.226C88.562 263.138 88.628 263.05 88.782 263.006C90.938 262.434 92.588 261.356 93.402 259.596H89.244C89.046 259.596 88.936 259.486 88.936 259.288V257.418C88.936 257.22 89.046 257.11 89.244 257.11H93.842C93.886 256.516 93.908 255.724 93.908 255.02H89.684ZM82.336 267.296C82.292 267.23 82.27 267.164 82.27 267.098C82.27 267.01 82.336 266.922 82.446 266.856C83.392 266.306 84.47 265.536 85.196 264.832V259.992H83.062C82.864 259.992 82.754 259.882 82.754 259.684V257.682C82.754 257.484 82.864 257.374 83.062 257.374H87.594C87.792 257.374 87.902 257.484 87.902 257.682V264.106C88.496 265.646 89.706 266.306 92.016 266.46C92.808 266.526 93.798 266.57 94.898 266.57C97.208 266.57 100.024 266.416 102.532 266.086H102.598C102.796 266.086 102.884 266.218 102.818 266.416L102.114 268.726C102.07 268.88 101.982 268.968 101.85 268.99C100.332 269.166 97.758 269.298 95.338 269.298C94.062 269.298 92.83 269.254 91.818 269.166C89.354 268.99 87.77 268.33 86.626 266.944C85.966 267.758 85.02 268.66 84.074 269.342C84.008 269.386 83.942 269.408 83.876 269.408C83.788 269.408 83.722 269.364 83.656 269.276L82.336 267.296ZM83.194 251.676C83.106 251.61 83.084 251.544 83.084 251.456C83.084 251.39 83.128 251.302 83.216 251.236L84.932 250.07C85.02 250.026 85.086 250.004 85.152 250.004C85.218 250.004 85.306 250.026 85.372 250.092C86.384 251.016 87.44 252.336 88.078 253.546C88.122 253.612 88.144 253.678 88.144 253.722C88.144 253.81 88.078 253.898 87.99 253.964L86.186 255.218C86.12 255.284 86.054 255.306 86.01 255.306C85.9 255.306 85.834 255.24 85.768 255.108C85.174 253.898 84.184 252.578 83.194 251.676ZM112.168 252.402C111.97 252.402 111.86 252.292 111.86 252.094V250.554C111.86 250.356 111.97 250.246 112.168 250.246H123.014C123.212 250.246 123.322 250.356 123.322 250.554V252.094C123.322 252.292 123.212 252.402 123.014 252.402H112.168ZM104.204 257.462C104.204 257.352 104.248 257.264 104.336 257.176C106.162 255.372 107.592 252.6 108.274 250.004C108.318 249.806 108.45 249.74 108.648 249.762L110.87 250.202C111.068 250.246 111.156 250.378 111.09 250.576C110.694 251.984 110.232 253.282 109.616 254.536V269.342C109.616 269.54 109.506 269.65 109.308 269.65H107.152C106.954 269.65 106.844 269.54 106.844 269.342V258.76C106.382 259.42 105.92 259.948 105.458 260.388C105.392 260.454 105.326 260.498 105.282 260.498C105.172 260.498 105.106 260.41 105.062 260.278L104.226 257.594L104.204 257.462ZM110.694 253.634C110.694 253.436 110.804 253.326 111.002 253.326H124.202C124.4 253.326 124.51 253.436 124.51 253.634V255.328C124.51 255.526 124.4 255.636 124.202 255.636H111.002C110.804 255.636 110.694 255.526 110.694 255.328V253.634ZM111.398 263.182C111.398 262.984 111.508 262.874 111.706 262.874H123.41C123.63 262.874 123.718 262.984 123.718 263.182V268.99C123.718 269.21 123.63 269.298 123.41 269.298H111.706C111.508 269.298 111.398 269.21 111.398 268.99V263.182ZM111.75 256.956C111.75 256.758 111.86 256.648 112.058 256.648H123.014C123.212 256.648 123.322 256.758 123.322 256.956V258.386C123.322 258.584 123.212 258.694 123.014 258.694H112.058C111.86 258.694 111.75 258.584 111.75 258.386V256.956ZM111.772 259.97C111.772 259.772 111.882 259.662 112.08 259.662H123.014C123.212 259.662 123.322 259.772 123.322 259.97V261.422C123.322 261.62 123.212 261.73 123.014 261.73H112.08C111.882 261.73 111.772 261.62 111.772 261.422V259.97ZM114.126 267.208H120.99V264.986H114.126V267.208ZM145.124 260.058C145.08 260.08 145.036 260.102 144.992 260.102C144.882 260.102 144.794 260.036 144.728 259.882C144.332 258.848 143.606 257.572 142.946 256.736C142.88 256.67 142.858 256.604 142.858 256.538C142.858 256.45 142.924 256.362 143.034 256.318L144.024 255.922C144.068 255.9 144.134 255.878 144.178 255.878C144.266 255.878 144.354 255.922 144.442 256.01C145.168 256.802 146.004 258.21 146.4 259.244C146.422 259.288 146.422 259.332 146.422 259.376C146.422 259.486 146.356 259.574 146.224 259.64L145.124 260.058ZM127.26 252.16C127.26 251.984 127.37 251.896 127.546 251.896C132.122 251.896 140.02 251.874 144.772 251.786C144.97 251.786 145.08 251.874 145.08 252.094V254.404C145.08 254.602 144.97 254.712 144.772 254.712C143.166 254.69 141.736 254.91 140.372 255.548C137.028 257.044 135.092 259.442 135.092 261.532C135.092 263.754 137.336 265.624 142.484 265.624C142.704 265.624 142.814 265.734 142.77 265.954L142.33 268.462C142.286 268.66 142.176 268.748 141.978 268.748C134.806 268.594 131.902 265.338 131.902 261.884C131.902 259.42 133.376 256.868 135.774 255.24C136.126 254.998 136.5 254.8 136.874 254.624C133.926 254.712 130.274 254.822 127.612 254.866C127.414 254.866 127.304 254.778 127.304 254.558L127.26 252.204V252.16ZM140.152 257.528C140.152 257.44 140.218 257.352 140.35 257.308L141.34 256.89C141.406 256.868 141.45 256.868 141.516 256.868C141.604 256.868 141.692 256.912 141.758 257C142.462 257.836 143.254 259.244 143.672 260.3C143.694 260.344 143.694 260.388 143.694 260.432C143.694 260.564 143.628 260.652 143.496 260.696L142.374 261.158C142.308 261.18 142.264 261.202 142.22 261.202C142.11 261.202 142.022 261.114 141.978 260.982C141.582 259.882 140.944 258.672 140.24 257.726C140.174 257.66 140.152 257.594 140.152 257.528ZM164.154 268.77C164.132 268.946 164.044 269.056 163.846 269.078C162.438 269.276 161.118 269.364 159.952 269.364C158.5 269.364 157.224 269.232 156.168 268.99C152.582 268.242 151.02 266.372 151.02 263.952C151.02 263.534 151.064 263.094 151.152 262.632C151.196 262.456 151.306 262.368 151.482 262.346L153.946 262.016H154.012C154.188 262.016 154.276 262.148 154.232 262.346C154.166 262.698 154.122 263.028 154.122 263.336C154.122 264.898 155.068 265.866 157.004 266.284C157.686 266.438 158.522 266.504 159.446 266.504C160.744 266.504 162.262 266.35 163.978 266.042H164.066C164.242 266.042 164.33 266.13 164.308 266.328L164.154 268.77ZM150.184 258.034C150.184 257.858 150.294 257.748 150.492 257.748C153.242 257.748 155.948 257.66 158.544 257.484C158.258 256.736 157.994 255.988 157.752 255.24C155.574 255.372 153.33 255.482 150.954 255.548C150.756 255.548 150.646 255.438 150.624 255.262L150.338 253.216V253.15C150.338 252.974 150.448 252.886 150.624 252.886C152.846 252.842 155.024 252.776 157.07 252.666L156.564 250.576V250.466C156.564 250.334 156.652 250.246 156.828 250.224L159.16 250.004C159.182 249.982 159.204 249.982 159.204 249.982C159.38 249.982 159.468 250.092 159.512 250.246C159.644 250.95 159.798 251.698 159.996 252.468C161.8 252.314 163.45 252.138 164.924 251.918H164.99C165.166 251.918 165.254 252.006 165.276 252.204L165.496 254.294V254.36C165.496 254.514 165.408 254.624 165.254 254.624C163.758 254.778 162.262 254.932 160.744 255.042C161.008 255.746 161.294 256.516 161.58 257.242C163.428 257.088 165.188 256.89 166.86 256.648H166.926C167.102 256.648 167.19 256.736 167.212 256.912L167.498 258.98V259.046C167.498 259.2 167.41 259.31 167.256 259.31C165.76 259.508 164.242 259.684 162.702 259.816C163.208 260.762 163.758 261.664 164.33 262.434C164.374 262.522 164.396 262.588 164.396 262.632C164.396 262.742 164.33 262.808 164.198 262.852L161.91 263.666C161.866 263.688 161.822 263.688 161.778 263.688C161.668 263.688 161.58 263.644 161.514 263.534C160.766 262.412 160.128 261.246 159.556 260.08C156.674 260.278 153.726 260.41 150.712 260.432C150.514 260.432 150.404 260.344 150.382 260.146L150.184 258.078V258.034ZM188.21 259.2C188.21 259.398 188.1 259.508 187.902 259.508H182.336L182.38 262.39C184.316 263.182 186.34 264.392 188.298 266.042C188.386 266.108 188.43 266.196 188.43 266.284C188.43 266.35 188.408 266.416 188.342 266.482L186.67 268.462C186.604 268.55 186.538 268.594 186.45 268.594C186.384 268.594 186.318 268.55 186.23 268.484C185.02 267.318 183.7 266.262 182.292 265.426C182.006 266.922 181.17 268.198 179.762 268.814C178.97 269.144 178.046 269.32 177.122 269.32C175.362 269.32 173.58 268.682 172.656 267.384C172.172 266.702 171.93 265.954 171.93 265.228C171.93 264.062 172.524 262.94 173.668 262.214C174.592 261.642 175.846 261.29 177.342 261.29C177.98 261.29 178.662 261.356 179.388 261.488L179.344 259.508H172.304C172.106 259.508 171.996 259.398 171.996 259.2V257.198C171.996 257 172.106 256.89 172.304 256.89H179.3L179.256 254.756H171.886C171.688 254.756 171.578 254.646 171.578 254.448V252.446C171.578 252.248 171.688 252.138 171.886 252.138H179.212L179.168 250.268C179.168 250.048 179.256 249.938 179.476 249.938L182.028 249.916C182.226 249.916 182.336 250.026 182.336 250.224V252.138L188.342 252.116C188.54 252.116 188.65 252.226 188.65 252.424V254.448C188.65 254.646 188.54 254.756 188.342 254.756H182.336V256.868H187.902C188.1 256.868 188.21 256.978 188.21 257.176V259.2ZM174.746 265.206C174.746 265.492 174.856 265.778 175.076 266.042C175.45 266.526 176.242 266.812 177.012 266.812C177.474 266.812 177.936 266.702 178.31 266.504C179.014 266.13 179.366 265.602 179.476 264.48L179.498 264.194C179.454 264.172 179.432 264.15 179.388 264.15C178.53 263.798 177.76 263.644 177.056 263.644C176.44 263.644 175.912 263.776 175.494 264.018C175.01 264.304 174.746 264.744 174.746 265.206ZM200.376 268.308C197.67 267.978 195.91 266.592 195.778 263.6C195.734 262.808 195.712 261.73 195.712 260.498L195.734 257.66L192.72 257.77C192.522 257.77 192.412 257.66 192.412 257.462L192.39 255.262V255.218C192.39 255.042 192.5 254.954 192.676 254.932L195.778 254.822L195.8 251.17C195.8 250.972 195.91 250.862 196.108 250.862H198.55C198.748 250.862 198.858 250.994 198.858 251.192C198.814 252.358 198.792 253.568 198.748 254.712L205.326 254.47C205.326 253.304 205.304 252.116 205.26 251.016C205.26 250.796 205.37 250.686 205.568 250.686L207.944 250.708C208.142 250.708 208.252 250.818 208.252 251.016C208.274 252.072 208.274 253.238 208.274 254.382L211.464 254.25C211.662 254.25 211.75 254.36 211.772 254.558L211.794 256.78C211.794 256.978 211.706 257.088 211.508 257.088L208.23 257.22C208.186 258.518 208.098 259.684 207.966 260.454C207.636 262.588 206.514 263.292 204.886 263.446C204.49 263.49 204.05 263.512 203.588 263.512C203.148 263.512 202.686 263.49 202.18 263.468C201.982 263.468 201.872 263.38 201.85 263.204L201.278 260.894L201.256 260.806C201.256 260.63 201.366 260.542 201.564 260.586C202.708 260.718 203.5 260.762 204.05 260.718C204.798 260.652 205.062 260.278 205.15 259.772C205.238 259.244 205.282 258.364 205.326 257.308L198.704 257.55C198.682 258.408 198.682 259.244 198.682 259.992C198.682 261.29 198.704 262.39 198.748 263.204C198.836 264.722 199.386 265.36 200.97 265.558C201.41 265.602 202.092 265.668 203.016 265.668C204.468 265.668 206.514 265.558 209.154 265.206H209.22C209.396 265.206 209.506 265.316 209.484 265.492L209.462 267.89C209.462 268.088 209.242 268.198 208.846 268.242C206.844 268.396 205.128 268.462 203.676 268.462C202.312 268.462 201.212 268.396 200.376 268.308ZM216.441 268.792C216.375 268.99 216.243 269.056 216.067 268.99L213.603 268.154C213.427 268.088 213.361 267.934 213.427 267.758C215.649 261.972 218.487 255.02 220.181 250.444C220.247 250.246 220.379 250.18 220.577 250.246L223.085 251.038C223.283 251.082 223.349 251.236 223.261 251.412C222.183 253.854 220.753 256.934 219.521 259.882C220.291 259.266 221.171 258.936 221.985 258.936C223.393 258.936 224.625 259.904 224.845 262.06C224.911 262.808 224.911 263.82 225.087 264.568C225.285 265.536 225.857 265.998 226.517 265.998C227.089 265.998 227.727 265.646 228.233 264.986C229.047 263.996 229.531 261.994 229.707 259.86C229.729 259.64 229.861 259.552 230.081 259.64L232.413 260.652C232.567 260.718 232.655 260.85 232.633 261.026C232.303 263.71 231.665 265.822 230.345 267.274C229.311 268.418 227.815 269.056 226.385 269.056C224.581 269.056 222.887 268.044 222.403 265.778C222.183 265.074 222.183 263.93 222.139 263.05C222.051 262.082 221.633 261.576 221.017 261.576C220.071 261.576 218.685 262.786 217.629 265.272C217.211 266.46 216.793 267.692 216.441 268.792ZM251.407 260.058C251.363 260.08 251.319 260.102 251.275 260.102C251.165 260.102 251.077 260.036 251.011 259.882C250.615 258.848 249.889 257.572 249.229 256.736C249.163 256.67 249.141 256.604 249.141 256.538C249.141 256.45 249.207 256.362 249.317 256.318L250.307 255.922C250.351 255.9 250.417 255.878 250.461 255.878C250.549 255.878 250.637 255.922 250.725 256.01C251.451 256.802 252.287 258.21 252.683 259.244C252.705 259.288 252.705 259.332 252.705 259.376C252.705 259.486 252.639 259.574 252.507 259.64L251.407 260.058ZM233.543 252.16C233.543 251.984 233.653 251.896 233.829 251.896C238.405 251.896 246.303 251.874 251.055 251.786C251.253 251.786 251.363 251.874 251.363 252.094V254.404C251.363 254.602 251.253 254.712 251.055 254.712C249.449 254.69 248.019 254.91 246.655 255.548C243.311 257.044 241.375 259.442 241.375 261.532C241.375 263.754 243.619 265.624 248.767 265.624C248.987 265.624 249.097 265.734 249.053 265.954L248.613 268.462C248.569 268.66 248.459 268.748 248.261 268.748C241.089 268.594 238.185 265.338 238.185 261.884C238.185 259.42 239.659 256.868 242.057 255.24C242.409 254.998 242.783 254.8 243.157 254.624C240.209 254.712 236.557 254.822 233.895 254.866C233.697 254.866 233.587 254.778 233.587 254.558L233.543 252.204V252.16ZM246.435 257.528C246.435 257.44 246.501 257.352 246.633 257.308L247.623 256.89C247.689 256.868 247.733 256.868 247.799 256.868C247.887 256.868 247.975 256.912 248.041 257C248.745 257.836 249.537 259.244 249.955 260.3C249.977 260.344 249.977 260.388 249.977 260.432C249.977 260.564 249.911 260.652 249.779 260.696L248.657 261.158C248.591 261.18 248.547 261.202 248.503 261.202C248.393 261.202 248.305 261.114 248.261 260.982C247.865 259.882 247.227 258.672 246.523 257.726C246.457 257.66 246.435 257.594 246.435 257.528ZM270.481 266.548C269.051 268.242 266.565 269.21 264.123 269.21C260.911 269.21 257.809 267.472 257.633 263.314C257.611 262.808 257.611 262.236 257.611 261.62C257.611 258.672 257.809 254.492 257.941 250.928C257.941 250.73 258.051 250.62 258.249 250.62L260.779 250.686C260.977 250.686 261.087 250.796 261.087 250.994C260.845 254.668 260.669 258.452 260.669 261.246V262.61C260.757 265.14 262.429 266.24 264.299 266.24C265.619 266.24 267.027 265.69 268.039 264.722C269.073 263.666 269.623 262.236 270.019 260.058C270.063 259.904 270.129 259.816 270.239 259.816C270.305 259.816 270.371 259.838 270.415 259.882L272.615 261.268C272.747 261.356 272.813 261.488 272.769 261.686C272.307 263.622 271.691 265.14 270.481 266.548ZM279.516 268.704C279.45 268.88 279.318 268.946 279.142 268.902L276.59 268.242C276.37 268.198 276.304 268.044 276.392 267.846C278.196 263.38 279.472 259.266 280.286 255.526C279.186 255.548 278.064 255.548 276.81 255.548C276.612 255.548 276.502 255.438 276.502 255.24V253.172C276.502 252.974 276.612 252.864 276.81 252.864H280.022H280.682C280.836 252.028 280.946 251.192 281.034 250.378C281.056 250.18 281.166 250.092 281.364 250.092L283.718 250.224C283.916 250.224 284.026 250.356 284.004 250.554C283.894 251.324 283.762 252.094 283.63 252.864L287.612 252.842H287.634C287.81 252.842 287.92 252.952 287.92 253.15V255.218C287.92 255.416 287.81 255.526 287.612 255.526H285.478H283.212C282.376 259.618 281.166 263.952 279.516 268.704ZM283.586 264.37C283.586 264.238 283.674 264.128 283.828 264.084L285.808 263.49H285.918C286.05 263.49 286.138 263.556 286.182 263.71C286.424 264.612 286.974 265.206 287.986 265.558C288.646 265.8 289.394 265.91 290.208 265.91C291.396 265.91 292.76 265.668 294.168 265.294C294.212 265.272 294.234 265.272 294.278 265.272C294.432 265.272 294.52 265.36 294.52 265.558L294.564 267.846C294.564 268.022 294.476 268.154 294.3 268.176C292.98 268.484 291.55 268.682 290.208 268.682C288.778 268.682 287.414 268.462 286.292 267.89C284.73 267.186 283.85 265.998 283.608 264.458C283.586 264.436 283.586 264.414 283.586 264.37ZM284.884 257.264C284.884 257.088 284.972 256.978 285.17 256.956C286.71 256.78 288.228 256.67 289.702 256.67C291.088 256.67 292.474 256.78 293.816 257.022C293.992 257.044 294.08 257.176 294.058 257.374L293.86 259.508C293.838 259.706 293.706 259.794 293.508 259.772C292.1 259.508 290.758 259.376 289.416 259.376C288.118 259.376 286.82 259.486 285.434 259.728H285.346C285.192 259.728 285.104 259.64 285.082 259.464L284.884 257.308V257.264ZM307.236 261.488C306.158 261.488 305.344 260.718 305.344 259.64C305.344 258.562 306.158 257.792 307.236 257.792C308.314 257.792 309.128 258.562 309.128 259.64C309.128 260.718 308.314 261.488 307.236 261.488ZM298.128 259.64C298.128 258.562 298.964 257.792 300.042 257.792C301.12 257.792 301.934 258.562 301.934 259.64C301.934 260.718 301.12 261.488 300.042 261.488C298.964 261.488 298.128 260.718 298.128 259.64ZM312.538 259.64C312.538 258.562 313.352 257.792 314.43 257.792C315.508 257.792 316.344 258.562 316.344 259.64C316.344 260.718 315.508 261.488 314.43 261.488C313.352 261.488 312.538 260.718 312.538 259.64Z" fill="white"/>
</svg>
