<svg width="25" height="24" viewBox="0 0 25 24" fill="none" xmlns="http://www.w3.org/2000/svg">
<path d="M8.5 22C9.05228 22 9.5 21.5523 9.5 21C9.5 20.4477 9.05228 20 8.5 20C7.94772 20 7.5 20.4477 7.5 21C7.5 21.5523 7.94772 22 8.5 22Z" stroke="#1A1A1A" stroke-width="2" stroke-linecap="round" stroke-linejoin="round"/>
<path d="M19.5 22C20.0523 22 20.5 21.5523 20.5 21C20.5 20.4477 20.0523 20 19.5 20C18.9477 20 18.5 20.4477 18.5 21C18.5 21.5523 18.9477 22 19.5 22Z" stroke="#1A1A1A" stroke-width="2" stroke-linecap="round" stroke-linejoin="round"/>
<path d="M2.54999 2.0498H4.54999L7.20999 14.4698C7.30757 14.9247 7.56066 15.3313 7.9257 15.6197C8.29074 15.908 8.74489 16.0602 9.20999 16.0498H18.99C19.4452 16.0491 19.8865 15.8931 20.241 15.6076C20.5956 15.3222 20.8421 14.9243 20.94 14.4798L22.59 7.0498H5.61999" stroke="#1A1A1A" stroke-width="2" stroke-linecap="round" stroke-linejoin="round"/>
</svg>
